<svg width="2122" height="631" viewBox="0 0 2122 631" fill="none" xmlns="http://www.w3.org/2000/svg">
<path d="M486 19.0003L593.783 19C614.889 19 632 36.0132 632 57" stroke="#533B60" stroke-width="15" stroke-linecap="round" stroke-linejoin="round"/>
<path d="M1197 14.0003L1304.78 14C1325.89 14 1343 31.0132 1343 52" stroke="#533B60" stroke-width="15" stroke-linecap="round" stroke-linejoin="round"/>
<path d="M1907 9.00026L2014.78 9C2035.89 9 2053 26.0132 2053 47" stroke="#533B60" stroke-width="15" stroke-linecap="round" stroke-linejoin="round"/>
<path d="M693 216V143.652C693 129.484 681.357 118 667 118C652.643 118 641 129.484 641 143.652V154.85" stroke="#523B60" stroke-width="15" stroke-linecap="round" stroke-linejoin="round"/>
<path d="M1404 211V138.652C1404 124.484 1392.36 113 1378 113C1363.64 113 1352 124.484 1352 138.652V149.85" stroke="#523B60" stroke-width="15" stroke-linecap="round" stroke-linejoin="round"/>
<path d="M2114 206V133.652C2114 119.484 2102.36 108 2088 108C2073.64 108 2062 119.484 2062 133.652V144.85" stroke="#523B60" stroke-width="15" stroke-linecap="round" stroke-linejoin="round"/>
<path d="M211.43 544.5V544.484C172.068 543.623 141.236 508.959 140.513 467.22H140.5V465.72V464.22H140.513C140.751 450.345 144.29 437.311 150.341 426.039L150.329 426.032L151.063 424.725C151.063 424.725 151.063 424.725 151.063 424.725L211.43 544.5ZM211.43 544.5H212.93H211.43ZM214.43 531.694V531.519H212.93C180.633 531.519 153.472 502.626 153.472 465.72C153.472 452.973 156.743 441.115 162.374 431.079L162.374 431.079L163.107 429.772L162.955 429.687C163.765 426.861 162.568 423.746 159.894 422.243C157.22 420.74 153.939 421.339 151.949 423.501L151.797 423.416L151.064 424.722L214.43 531.694ZM258.014 386.5H256.514H214.589H213.089H211.589V386.516C196.781 386.84 183.086 391.942 171.781 400.387L171.772 400.375L170.588 401.298L170.588 401.298C170.588 401.298 170.587 401.298 170.587 401.298L169.406 402.219L169.513 402.357C167.673 404.649 167.574 407.986 169.458 410.405C171.342 412.826 174.598 413.546 177.27 412.323L177.377 412.46L178.561 411.538L178.561 411.537C188.334 403.918 200.25 399.481 213.089 399.481H214.589H256.514H258.014H259.514V399.306C262.374 398.629 264.5 396.057 264.5 392.99C264.5 389.923 262.374 387.352 259.514 386.674V386.5H258.014ZM170.326 403.402L170.468 403.584C169.266 405.33 169.27 407.723 170.642 409.484L170.326 403.402Z" fill="#523B60" stroke="#533B60" stroke-width="3"/>
<path d="M922.43 539.5V539.484C883.068 538.623 852.236 503.959 851.513 462.22H851.5V460.72V459.22H851.513C851.751 445.345 855.29 432.311 861.341 421.039L861.329 421.032L862.063 419.725C862.063 419.725 862.063 419.725 862.063 419.725L922.43 539.5ZM922.43 539.5H923.93H922.43ZM925.43 526.694V526.519H923.93C891.633 526.519 864.472 497.626 864.472 460.72C864.472 447.973 867.743 436.115 873.374 426.079L873.374 426.079L874.107 424.772L873.955 424.687C874.765 421.861 873.568 418.746 870.894 417.243C868.22 415.74 864.939 416.339 862.949 418.501L862.797 418.416L862.064 419.722L925.43 526.694ZM969.014 381.5H967.514H925.589H924.089H922.589V381.516C907.781 381.84 894.086 386.942 882.781 395.387L882.772 395.375L881.588 396.298L881.588 396.298C881.588 396.298 881.587 396.298 881.587 396.298L880.406 397.219L880.513 397.357C878.673 399.649 878.574 402.986 880.458 405.405C882.342 407.826 885.598 408.546 888.27 407.323L888.377 407.46L889.561 406.538L889.561 406.537C899.334 398.918 911.25 394.481 924.089 394.481H925.589H967.514H969.014H970.514V394.306C973.374 393.629 975.5 391.057 975.5 387.99C975.5 384.923 973.374 382.352 970.514 381.674V381.5H969.014ZM881.326 398.402L881.468 398.584C880.266 400.33 880.27 402.723 881.642 404.484L881.326 398.402Z" fill="#523B60" stroke="#533B60" stroke-width="3"/>
<path d="M1632.43 534.5V534.484C1593.07 533.623 1562.24 498.959 1561.51 457.22H1561.5V455.72V454.22H1561.51C1561.75 440.345 1565.29 427.311 1571.34 416.039L1571.33 416.032L1572.06 414.725C1572.06 414.725 1572.06 414.725 1572.06 414.725L1632.43 534.5ZM1632.43 534.5H1633.93H1632.43ZM1635.43 521.694V521.519H1633.93C1601.63 521.519 1574.47 492.626 1574.47 455.72C1574.47 442.973 1577.74 431.115 1583.37 421.079L1583.37 421.079L1584.11 419.772L1583.96 419.687C1584.77 416.861 1583.57 413.746 1580.89 412.243C1578.22 410.74 1574.94 411.339 1572.95 413.501L1572.8 413.416L1572.06 414.722L1635.43 521.694ZM1679.01 376.5H1677.51H1635.59H1634.09H1632.59V376.516C1617.78 376.84 1604.09 381.942 1592.78 390.387L1592.77 390.375L1591.59 391.298L1591.59 391.298C1591.59 391.298 1591.59 391.298 1591.59 391.298L1590.41 392.219L1590.51 392.357C1588.67 394.649 1588.57 397.986 1590.46 400.405C1592.34 402.826 1595.6 403.546 1598.27 402.323L1598.38 402.46L1599.56 401.538L1599.56 401.537C1609.33 393.918 1621.25 389.481 1634.09 389.481H1635.59H1677.51H1679.01H1680.51V389.306C1683.37 388.629 1685.5 386.057 1685.5 382.99C1685.5 379.923 1683.37 377.352 1680.51 376.674V376.5H1679.01ZM1591.33 393.402L1591.47 393.584C1590.27 395.33 1590.27 397.723 1591.64 399.484L1591.33 393.402Z" fill="#523B60" stroke="#533B60" stroke-width="3"/>
<path d="M474 259.023C487.807 259.023 499 269.987 499 283.511C499 297.036 487.807 308 474 308C460.192 308 449 297.036 449 283.511V192" stroke="#523B60" stroke-width="15" stroke-linecap="round" stroke-linejoin="round"/>
<path d="M1185 254.023C1198.81 254.023 1210 264.987 1210 278.511C1210 292.036 1198.81 303 1185 303C1171.19 303 1160 292.036 1160 278.511V187" stroke="#523B60" stroke-width="15" stroke-linecap="round" stroke-linejoin="round"/>
<path d="M1895 249.023C1908.81 249.023 1920 259.987 1920 273.511C1920 287.036 1908.81 298 1895 298C1881.19 298 1870 287.036 1870 273.511V182" stroke="#523B60" stroke-width="15" stroke-linecap="round" stroke-linejoin="round"/>
<path d="M36.5 331.354C20.7598 331.354 8 344.034 8 359.676C8 375.32 20.7598 388 36.5 388C52.2401 388 65 375.32 65 359.676V244" stroke="#533B60" stroke-width="15" stroke-linecap="round" stroke-linejoin="round"/>
<path d="M747.5 326.354C731.76 326.354 719 339.034 719 354.676C719 370.32 731.76 383 747.5 383C763.24 383 776 370.32 776 354.676V239" stroke="#533B60" stroke-width="15" stroke-linecap="round" stroke-linejoin="round"/>
<path d="M1457.5 321.354C1441.76 321.354 1429 334.034 1429 349.676C1429 365.32 1441.76 378 1457.5 378C1473.24 378 1486 365.32 1486 349.676V234" stroke="#533B60" stroke-width="15" stroke-linecap="round" stroke-linejoin="round"/>
<path fill-rule="evenodd" clip-rule="evenodd" d="M481 93C481 70.3562 499.338 52 521.96 52H564.04C586.664 52 605 70.3562 605 93C605 115.644 586.664 134 564.04 134H521.96C499.338 134 481 115.644 481 93Z" stroke="#F4B170" stroke-width="15" stroke-linecap="round" stroke-linejoin="round"/>
<path fill-rule="evenodd" clip-rule="evenodd" d="M1192 88C1192 65.3562 1210.34 47 1232.96 47H1275.04C1297.66 47 1316 65.3562 1316 88C1316 110.644 1297.66 129 1275.04 129H1232.96C1210.34 129 1192 110.644 1192 88Z" stroke="#F4B170" stroke-width="15" stroke-linecap="round" stroke-linejoin="round"/>
<path fill-rule="evenodd" clip-rule="evenodd" d="M1902 83C1902 60.3562 1920.34 42 1942.96 42H1985.04C2007.66 42 2026 60.3562 2026 83C2026 105.644 2007.66 124 1985.04 124H1942.96C1920.34 124 1902 105.644 1902 83Z" stroke="#F4B170" stroke-width="15" stroke-linecap="round" stroke-linejoin="round"/>
<path d="M653 286H617.059C591.068 286 570 307.491 570 334" stroke="#4484AB" stroke-width="15" stroke-linecap="round" stroke-linejoin="round"/>
<path d="M1364 281H1328.06C1302.07 281 1281 302.491 1281 329" stroke="#4484AB" stroke-width="15" stroke-linecap="round" stroke-linejoin="round"/>
<path d="M2074 276H2038.06C2012.07 276 1991 297.491 1991 324" stroke="#4484AB" stroke-width="15" stroke-linecap="round" stroke-linejoin="round"/>
<path d="M693 446C693 459.807 681.808 471 668 471C654.193 471 643 459.807 643 446" stroke="#59A593" stroke-width="15" stroke-linecap="round" stroke-linejoin="round"/>
<path d="M1404 441C1404 454.807 1392.81 466 1379 466C1365.19 466 1354 454.807 1354 441" stroke="#59A593" stroke-width="15" stroke-linecap="round" stroke-linejoin="round"/>
<path d="M2114 436C2114 449.807 2102.81 461 2089 461C2075.19 461 2064 449.807 2064 436" stroke="#59A593" stroke-width="15" stroke-linecap="round" stroke-linejoin="round"/>
<path d="M248 47.1784C248 61.4392 259.417 73 273.5 73C287.583 73 299 61.4392 299 47.1784V18" stroke="#59A593" stroke-width="15" stroke-linecap="round" stroke-linejoin="round"/>
<path d="M959 42.1784C959 56.4392 970.417 68 984.5 68C998.583 68 1010 56.4392 1010 42.1784V13" stroke="#59A593" stroke-width="15" stroke-linecap="round" stroke-linejoin="round"/>
<path d="M1669 37.1784C1669 51.4392 1680.42 63 1694.5 63C1708.58 63 1720 51.4392 1720 37.1784V8" stroke="#59A593" stroke-width="15" stroke-linecap="round" stroke-linejoin="round"/>
<path fill-rule="evenodd" clip-rule="evenodd" d="M258.999 203C268.389 203 276 195.389 276 186C276 176.611 268.389 169 258.999 169C249.61 169 242 176.611 242 186C242 195.389 249.61 203 258.999 203Z" stroke="#59A593" stroke-width="15" stroke-linecap="round" stroke-linejoin="round"/>
<path fill-rule="evenodd" clip-rule="evenodd" d="M1330 535C1339.39 535 1347 527.389 1347 518C1347 508.611 1339.39 501 1330 501C1320.61 501 1313 508.611 1313 518C1313 527.389 1320.61 535 1330 535Z" stroke="#59A593" stroke-width="15" stroke-linecap="round" stroke-linejoin="round"/>
<path fill-rule="evenodd" clip-rule="evenodd" d="M2040 530C2049.39 530 2057 522.389 2057 513C2057 503.611 2049.39 496 2040 496C2030.61 496 2023 503.611 2023 513C2023 522.389 2030.61 530 2040 530Z" stroke="#59A593" stroke-width="15" stroke-linecap="round" stroke-linejoin="round"/>
<path fill-rule="evenodd" clip-rule="evenodd" d="M1253 104C1262.39 104 1270 96.3885 1270 86.9995C1270 77.6115 1262.39 70 1253 70C1243.61 70 1236 77.6115 1236 86.9995C1236 96.3885 1243.61 104 1253 104Z" stroke="#59A593" stroke-width="15" stroke-linecap="round" stroke-linejoin="round"/>
<path fill-rule="evenodd" clip-rule="evenodd" d="M1963 99C1972.39 99 1980 91.3885 1980 81.9995C1980 72.6115 1972.39 65 1963 65C1953.61 65 1946 72.6115 1946 81.9995C1946 91.3885 1953.61 99 1963 99Z" stroke="#59A593" stroke-width="15" stroke-linecap="round" stroke-linejoin="round"/>
<path fill-rule="evenodd" clip-rule="evenodd" d="M739.999 193C749.389 193 757 185.389 757 176C757 166.611 749.389 159 739.999 159C730.61 159 723 166.611 723 176C723 185.389 730.61 193 739.999 193Z" stroke="#59A593" stroke-width="15" stroke-linecap="round" stroke-linejoin="round"/>
<path fill-rule="evenodd" clip-rule="evenodd" d="M1450 188C1459.39 188 1467 180.389 1467 171C1467 161.611 1459.39 154 1450 154C1440.61 154 1433 161.611 1433 171C1433 180.389 1440.61 188 1450 188Z" stroke="#59A593" stroke-width="15" stroke-linecap="round" stroke-linejoin="round"/>
<path fill-rule="evenodd" clip-rule="evenodd" d="M969.999 198C979.389 198 987 190.389 987 181C987 171.611 979.389 164 969.999 164C960.61 164 953 171.611 953 181C953 190.389 960.61 198 969.999 198Z" stroke="#59A593" stroke-width="15" stroke-linecap="round" stroke-linejoin="round"/>
<path fill-rule="evenodd" clip-rule="evenodd" d="M1680 193C1689.39 193 1697 185.389 1697 176C1697 166.611 1689.39 159 1680 159C1670.61 159 1663 166.611 1663 176C1663 185.389 1670.61 193 1680 193Z" stroke="#59A593" stroke-width="15" stroke-linecap="round" stroke-linejoin="round"/>
<path fill-rule="evenodd" clip-rule="evenodd" d="M85.9999 155C100.912 155 113 142.911 113 128C113 113.088 100.912 101 85.9999 101C71.0883 101 59 113.088 59 128C59 142.911 71.0883 155 85.9999 155Z" stroke="#523B60" stroke-width="15" stroke-linecap="round" stroke-linejoin="round"/>
<path fill-rule="evenodd" clip-rule="evenodd" d="M797 150C811.912 150 824 137.911 824 123C824 108.088 811.912 96 797 96C782.088 96 770 108.088 770 123C770 137.911 782.088 150 797 150Z" stroke="#523B60" stroke-width="15" stroke-linecap="round" stroke-linejoin="round"/>
<path fill-rule="evenodd" clip-rule="evenodd" d="M1507 145C1521.91 145 1534 132.911 1534 118C1534 103.088 1521.91 91 1507 91C1492.09 91 1480 103.088 1480 118C1480 132.911 1492.09 145 1507 145Z" stroke="#523B60" stroke-width="15" stroke-linecap="round" stroke-linejoin="round"/>
<path d="M147.5 195C133.969 195 123 206.193 123 220.001C123 233.807 133.969 245 147.5 245C161.031 245 172 233.807 172 220.001V195" stroke="#59A593" stroke-width="15" stroke-linecap="round" stroke-linejoin="round"/>
<path d="M858.5 190C844.969 190 834 201.193 834 215.001C834 228.807 844.969 240 858.5 240C872.031 240 883 228.807 883 215.001V190" stroke="#59A593" stroke-width="15" stroke-linecap="round" stroke-linejoin="round"/>
<path d="M1568.5 185C1554.97 185 1544 196.193 1544 210.001C1544 223.807 1554.97 235 1568.5 235C1582.03 235 1593 223.807 1593 210.001V185" stroke="#59A593" stroke-width="15" stroke-linecap="round" stroke-linejoin="round"/>
<path d="M633.501 391C633.501 405.36 645.032 417 659.253 417C673.475 417 685 405.36 685 391C685 376.641 673.475 365 659.253 365H573" stroke="#523B60" stroke-width="15" stroke-linecap="round" stroke-linejoin="round"/>
<path d="M1344.5 386C1344.5 400.36 1356.03 412 1370.25 412C1384.47 412 1396 400.36 1396 386C1396 371.641 1384.47 360 1370.25 360H1284" stroke="#523B60" stroke-width="15" stroke-linecap="round" stroke-linejoin="round"/>
<path d="M2054.5 381C2054.5 395.36 2066.03 407 2080.25 407C2094.47 407 2106 395.36 2106 381C2106 366.641 2094.47 355 2080.25 355H1994" stroke="#523B60" stroke-width="15" stroke-linecap="round" stroke-linejoin="round"/>
<path d="M1479.57 543.001C1479.57 529.193 1490.63 518 1504.28 518C1517.93 518 1529 529.193 1529 543.001C1529 556.807 1517.93 568 1504.28 568H1465" stroke="#59A593" stroke-width="15" stroke-linecap="round" stroke-linejoin="round"/>
<path d="M649.364 329C673.467 329 693 309.3 693 284.999C693 260.699 673.467 241 649.364 241H535" stroke="#59A593" stroke-width="15" stroke-linecap="round" stroke-linejoin="round"/>
<path d="M1360.36 324C1384.47 324 1404 304.3 1404 279.999C1404 255.699 1384.47 236 1360.36 236H1246" stroke="#59A593" stroke-width="15" stroke-linecap="round" stroke-linejoin="round"/>
<path d="M2070.36 319C2094.47 319 2114 299.3 2114 274.999C2114 250.699 2094.47 231 2070.36 231H1956" stroke="#59A593" stroke-width="15" stroke-linecap="round" stroke-linejoin="round"/>
<path d="M329 301V400.273C329 429.946 353.176 454 383 454C412.824 454 437 429.946 437 400.273V376.818" stroke="#59A593" stroke-width="15" stroke-linecap="round" stroke-linejoin="round"/>
<path d="M1040 296V395.273C1040 424.946 1064.18 449 1094 449C1123.82 449 1148 424.946 1148 395.273V371.818" stroke="#59A593" stroke-width="15" stroke-linecap="round" stroke-linejoin="round"/>
<path d="M1750 291V390.273C1750 419.946 1774.18 444 1804 444C1833.82 444 1858 419.946 1858 390.273V366.818" stroke="#59A593" stroke-width="15" stroke-linecap="round" stroke-linejoin="round"/>
<path d="M220 469H308.805C342.602 469 370 496.534 370 530.5C370 564.464 342.602 592 308.805 592H282.089" stroke="#59A593" stroke-width="15" stroke-linecap="round" stroke-linejoin="round"/>
<path d="M931 464H1019.8C1053.6 464 1081 491.534 1081 525.5C1081 559.464 1053.6 587 1019.8 587H993.089" stroke="#59A593" stroke-width="15" stroke-linecap="round" stroke-linejoin="round"/>
<path d="M1641 459H1729.8C1763.6 459 1791 486.534 1791 520.5C1791 554.464 1763.6 582 1729.8 582H1703.09" stroke="#59A593" stroke-width="15" stroke-linecap="round" stroke-linejoin="round"/>
<path d="M473.5 220H497.643C513.855 220 527 207.688 527 192.5C527 177.312 513.855 165 497.643 165H449.358C433.144 165 420 177.312 420 192.5" stroke="#59A593" stroke-width="15" stroke-linecap="round" stroke-linejoin="round"/>
<path d="M1184.5 215H1208.64C1224.86 215 1238 202.688 1238 187.5C1238 172.312 1224.86 160 1208.64 160H1160.36C1144.14 160 1131 172.312 1131 187.5" stroke="#59A593" stroke-width="15" stroke-linecap="round" stroke-linejoin="round"/>
<path d="M1894.5 210H1918.64C1934.86 210 1948 197.688 1948 182.5C1948 167.312 1934.86 155 1918.64 155H1870.36C1854.14 155 1841 167.312 1841 182.5" stroke="#59A593" stroke-width="15" stroke-linecap="round" stroke-linejoin="round"/>
<path d="M296 105H238.212C201.644 105 172 134.549 172 171" stroke="#F4B170" stroke-width="15" stroke-linecap="round" stroke-linejoin="round"/>
<path d="M1007 100H949.212C912.644 100 883 129.549 883 166" stroke="#F4B170" stroke-width="15" stroke-linecap="round" stroke-linejoin="round"/>
<path d="M1717 95H1659.21C1622.64 95 1593 124.549 1593 161" stroke="#F4B170" stroke-width="15" stroke-linecap="round" stroke-linejoin="round"/>
<path d="M444 551C444 526.148 464.1 506 488.895 506H568" stroke="#F4B170" stroke-width="15" stroke-linecap="round" stroke-linejoin="round"/>
<path d="M1155 546C1155 521.148 1175.1 501 1199.89 501H1279" stroke="#F4B170" stroke-width="15" stroke-linecap="round" stroke-linejoin="round"/>
<path d="M1865 541C1865 516.148 1885.1 496 1909.89 496H1989" stroke="#F4B170" stroke-width="15" stroke-linecap="round" stroke-linejoin="round"/>
<path d="M473 339C473 342.29 473 383.704 473 404" stroke="#59A593" stroke-width="15" stroke-linecap="round" stroke-linejoin="round"/>
<path d="M1184 334C1184 337.29 1184 378.704 1184 399" stroke="#59A593" stroke-width="15" stroke-linecap="round" stroke-linejoin="round"/>
<path d="M1894 329C1894 332.29 1894 373.704 1894 394" stroke="#59A593" stroke-width="15" stroke-linecap="round" stroke-linejoin="round"/>
<path d="M407 516C407 517.316 407 533.88 407 542" stroke="#523B60" stroke-width="15" stroke-linecap="round" stroke-linejoin="round"/>
<path d="M1118 511C1118 512.316 1118 528.88 1118 537" stroke="#523B60" stroke-width="15" stroke-linecap="round" stroke-linejoin="round"/>
<path d="M1828 506C1828 507.316 1828 523.88 1828 532" stroke="#523B60" stroke-width="15" stroke-linecap="round" stroke-linejoin="round"/>
<path d="M808 501C809.316 501 825.88 501 834 501" stroke="#523B60" stroke-width="15" stroke-linecap="round" stroke-linejoin="round"/>
<path d="M1494 496C1495.32 496 1511.88 496 1520 496" stroke="#523B60" stroke-width="15" stroke-linecap="round" stroke-linejoin="round"/>
<path d="M598 403C598 404.316 598 420.88 598 429" stroke="#523B60" stroke-width="15" stroke-linecap="round" stroke-linejoin="round"/>
<path d="M85.9999 187C119.137 187 146 160.362 146 127.5C146 94.6391 119.137 68 85.9999 68C52.8631 68 26 94.6391 26 127.5" stroke="#F4B170" stroke-width="15" stroke-linecap="round" stroke-linejoin="round"/>
<path d="M797 182C830.137 182 857 155.362 857 122.5C857 89.6391 830.137 63 797 63C763.863 63 737 89.6391 737 122.5" stroke="#F4B170" stroke-width="15" stroke-linecap="round" stroke-linejoin="round"/>
<path d="M1507 177C1540.14 177 1567 150.362 1567 117.5C1567 84.6391 1540.14 58 1507 58C1473.86 58 1447 84.6391 1447 117.5" stroke="#F4B170" stroke-width="15" stroke-linecap="round" stroke-linejoin="round"/>
<path d="M301.715 186.999C301.715 162.699 282.303 143 258.358 143C234.412 143 215 162.699 215 186.999C215 211.3 234.412 231 258.358 231H372" stroke="#523B60" stroke-width="15" stroke-linecap="round" stroke-linejoin="round"/>
<path d="M1012.72 181.999C1012.72 157.699 993.303 138 969.358 138C945.412 138 926 157.699 926 181.999C926 206.3 945.412 226 969.358 226H1083" stroke="#523B60" stroke-width="15" stroke-linecap="round" stroke-linejoin="round"/>
<path d="M1722.72 176.999C1722.72 152.699 1703.3 133 1679.36 133C1655.41 133 1636 152.699 1636 176.999C1636 201.3 1655.41 221 1679.36 221H1793" stroke="#523B60" stroke-width="15" stroke-linecap="round" stroke-linejoin="round"/>
<path fill-rule="evenodd" clip-rule="evenodd" d="M120.5 391C106.417 391 95 379.643 95 365.631V293.369C95 279.358 106.417 268 120.5 268C134.584 268 146 279.358 146 293.369V365.631C146 379.643 134.584 391 120.5 391Z" stroke="#59A593" stroke-width="15" stroke-linecap="round" stroke-linejoin="round"/>
<path fill-rule="evenodd" clip-rule="evenodd" d="M831.5 386C817.417 386 806 374.643 806 360.631V288.369C806 274.358 817.417 263 831.5 263C845.584 263 857 274.358 857 288.369V360.631C857 374.643 845.584 386 831.5 386Z" stroke="#59A593" stroke-width="15" stroke-linecap="round" stroke-linejoin="round"/>
<path fill-rule="evenodd" clip-rule="evenodd" d="M1541.5 381C1527.42 381 1516 369.643 1516 355.631V283.369C1516 269.358 1527.42 258 1541.5 258C1555.58 258 1567 269.358 1567 283.369V355.631C1567 369.643 1555.58 381 1541.5 381Z" stroke="#59A593" stroke-width="15" stroke-linecap="round" stroke-linejoin="round"/>
<path d="M399 154.163V157.509C399 176.557 383.553 192 364.5 192C345.447 192 330 176.557 330 157.509V52.4911C330 33.4422 345.447 18 364.5 18C383.553 18 399 33.4422 399 52.4911V53.5207" stroke="#F4B170" stroke-width="15" stroke-linecap="round" stroke-linejoin="round"/>
<path d="M1110 149.163V152.509C1110 171.557 1094.55 187 1075.5 187C1056.45 187 1041 171.557 1041 152.509V47.4911C1041 28.4422 1056.45 13 1075.5 13C1094.55 13 1110 28.4422 1110 47.4911V48.5207" stroke="#F4B170" stroke-width="15" stroke-linecap="round" stroke-linejoin="round"/>
<path d="M1820 144.163V147.509C1820 166.557 1804.55 182 1785.5 182C1766.45 182 1751 166.557 1751 147.509V42.4911C1751 23.4422 1766.45 8 1785.5 8C1804.55 8 1820 23.4422 1820 42.4911V43.5207" stroke="#F4B170" stroke-width="15" stroke-linecap="round" stroke-linejoin="round"/>
<path d="M37.4999 426H35.4459C20.8403 426 9 437.864 9 452.5C9 467.135 20.8402 479 35.4459 479H96.5539C111.16 479 123 467.135 123 452.5C123 437.864 111.16 426 96.5539 426H94.4998" stroke="#EF8D6E" stroke-width="15" stroke-linecap="round" stroke-linejoin="round"/>
<path d="M748.5 421H746.446C731.84 421 720 432.864 720 447.5C720 462.135 731.84 474 746.446 474H807.554C822.16 474 834 462.135 834 447.5C834 432.864 822.16 421 807.554 421H805.5" stroke="#EF8D6E" stroke-width="15" stroke-linecap="round" stroke-linejoin="round"/>
<path d="M1458.5 416H1456.45C1441.84 416 1430 427.864 1430 442.5C1430 457.135 1441.84 469 1456.45 469H1517.55C1532.16 469 1544 457.135 1544 442.5C1544 427.864 1532.16 416 1517.55 416H1515.5" stroke="#EF8D6E" stroke-width="15" stroke-linecap="round" stroke-linejoin="round"/>
<path d="M528.572 268.998V270.498V328.66V330.16C528.572 336.155 523.697 341.08 517.595 341.08H516.095V341.126C504.118 341.87 494.481 351.455 493.737 363.504H493.691V365.004V366.504V367.117V368.617V370.117H493.737C494.481 382.165 504.118 391.751 516.095 392.495V392.541H517.595C523.694 392.541 528.572 397.469 528.572 403.468V404.968V405.969V407.469C528.572 415.678 521.901 422.398 513.59 422.398H512.09H503.98H502.48H500.98H487.703H486.203H484.703V422.574C481.851 423.255 479.739 425.833 479.739 428.896C479.739 431.958 481.851 434.538 484.703 435.219V435.394H486.203H487.703H500.98H502.48H503.98H512.09H513.59H515.09V435.355C529.28 434.602 540.707 423.229 541.46 408.969H541.5V407.469V405.969V404.968V403.468V401.968H541.454C540.71 389.92 531.073 380.335 519.095 379.591V379.545H517.595C511.497 379.545 506.619 374.616 506.619 368.617V367.117V366.504V365.004C506.619 359.004 511.497 354.076 517.595 354.076H519.095V354.029C531.07 353.286 540.71 343.709 541.454 331.66H541.5V330.16V328.66V270.498V268.998V267.498H541.327C540.654 264.638 538.099 262.5 535.036 262.5C531.972 262.5 529.418 264.638 528.746 267.498H528.572V268.998ZM415.964 492.5H417.464H425.892H427.392H428.892V492.477C454.889 491.695 475.816 470.644 476.59 444.505H476.612V443.005V441.505H476.439C475.766 438.645 473.213 436.507 470.148 436.507C467.085 436.507 464.531 438.645 463.858 441.505H463.685V443.005C463.685 463.166 447.433 479.504 427.392 479.504H425.892H417.464H415.964H414.464V479.68C411.612 480.361 409.5 482.94 409.5 486.002C409.5 489.065 411.612 491.644 414.464 492.324V492.5H415.964Z" fill="#533B60" stroke="#523B60" stroke-width="3"/>
<path d="M1239.57 263.998V265.498V323.66V325.16C1239.57 331.155 1234.7 336.08 1228.6 336.08H1227.1V336.126C1215.12 336.87 1205.48 346.455 1204.74 358.504H1204.69V360.004V361.504V362.117V363.617V365.117H1204.74C1205.48 377.165 1215.12 386.751 1227.1 387.495V387.541H1228.6C1234.69 387.541 1239.57 392.469 1239.57 398.468V399.968V400.969V402.469C1239.57 410.678 1232.9 417.398 1224.59 417.398H1223.09H1214.98H1213.48H1211.98H1198.7H1197.2H1195.7V417.574C1192.85 418.255 1190.74 420.833 1190.74 423.896C1190.74 426.958 1192.85 429.538 1195.7 430.219V430.394H1197.2H1198.7H1211.98H1213.48H1214.98H1223.09H1224.59H1226.09V430.355C1240.28 429.602 1251.71 418.229 1252.46 403.969H1252.5V402.469V400.969V399.968V398.468V396.968H1252.45C1251.71 384.92 1242.07 375.335 1230.1 374.591V374.545H1228.6C1222.5 374.545 1217.62 369.616 1217.62 363.617V362.117V361.504V360.004C1217.62 354.004 1222.5 349.076 1228.6 349.076H1230.1V349.029C1242.07 348.286 1251.71 338.709 1252.45 326.66H1252.5V325.16V323.66V265.498V263.998V262.498H1252.33C1251.65 259.638 1249.1 257.5 1246.04 257.5C1242.97 257.5 1240.42 259.638 1239.75 262.498H1239.57V263.998ZM1126.96 487.5H1128.46H1136.89H1138.39H1139.89V487.477C1165.89 486.695 1186.82 465.644 1187.59 439.505H1187.61V438.005V436.505H1187.44C1186.77 433.645 1184.21 431.507 1181.15 431.507C1178.09 431.507 1175.53 433.645 1174.86 436.505H1174.68V438.005C1174.68 458.166 1158.43 474.504 1138.39 474.504H1136.89H1128.46H1126.96H1125.46V474.68C1122.61 475.361 1120.5 477.94 1120.5 481.002C1120.5 484.065 1122.61 486.644 1125.46 487.324V487.5H1126.96Z" fill="#533B60" stroke="#523B60" stroke-width="3"/>
<path d="M1949.57 258.998V260.498V318.66V320.16C1949.57 326.155 1944.7 331.08 1938.6 331.08H1937.1V331.126C1925.12 331.87 1915.48 341.455 1914.74 353.504H1914.69V355.004V356.504V357.117V358.617V360.117H1914.74C1915.48 372.165 1925.12 381.751 1937.1 382.495V382.541H1938.6C1944.69 382.541 1949.57 387.469 1949.57 393.468V394.968V395.969V397.469C1949.57 405.678 1942.9 412.398 1934.59 412.398H1933.09H1924.98H1923.48H1921.98H1908.7H1907.2H1905.7V412.574C1902.85 413.255 1900.74 415.833 1900.74 418.896C1900.74 421.958 1902.85 424.538 1905.7 425.219V425.394H1907.2H1908.7H1921.98H1923.48H1924.98H1933.09H1934.59H1936.09V425.355C1950.28 424.602 1961.71 413.229 1962.46 398.969H1962.5V397.469V395.969V394.968V393.468V391.968H1962.45C1961.71 379.92 1952.07 370.335 1940.1 369.591V369.545H1938.6C1932.5 369.545 1927.62 364.616 1927.62 358.617V357.117V356.504V355.004C1927.62 349.004 1932.5 344.076 1938.6 344.076H1940.1V344.029C1952.07 343.286 1961.71 333.709 1962.45 321.66H1962.5V320.16V318.66V260.498V258.998V257.498H1962.33C1961.65 254.638 1959.1 252.5 1956.04 252.5C1952.97 252.5 1950.42 254.638 1949.75 257.498H1949.57V258.998ZM1836.96 482.5H1838.46H1846.89H1848.39H1849.89V482.477C1875.89 481.695 1896.82 460.644 1897.59 434.505H1897.61V433.005V431.505H1897.44C1896.77 428.645 1894.21 426.507 1891.15 426.507C1888.09 426.507 1885.53 428.645 1884.86 431.505H1884.68V433.005C1884.68 453.166 1868.43 469.504 1848.39 469.504H1846.89H1838.46H1836.96H1835.46V469.68C1832.61 470.361 1830.5 472.94 1830.5 476.002C1830.5 479.065 1832.61 481.644 1835.46 482.324V482.5H1836.96Z" fill="#533B60" stroke="#523B60" stroke-width="3"/>
<path d="M693 84C675.878 84 662 70.1208 662 53C662 35.8792 675.878 22 693 22" stroke="#F4B170" stroke-width="15" stroke-linecap="round" stroke-linejoin="round"/>
<path d="M1404 79C1386.88 79 1373 65.1208 1373 48C1373 30.8792 1386.88 17 1404 17" stroke="#F4B170" stroke-width="15" stroke-linecap="round" stroke-linejoin="round"/>
<path d="M2114 74C2096.88 74 2083 60.1208 2083 43C2083 25.8792 2096.88 12 2114 12" stroke="#F4B170" stroke-width="15" stroke-linecap="round" stroke-linejoin="round"/>
<path d="M295.023 438.218C298.602 438.218 301.5 435.314 301.5 431.734C301.5 428.156 298.602 425.251 295.023 425.251H218.237C195.335 425.251 176.715 443.748 176.715 466.635C176.715 489.521 195.335 508.019 218.237 508.019H249.929C253.507 508.019 256.406 505.115 256.406 501.535C256.406 497.957 253.507 495.052 249.929 495.052H218.237C202.429 495.052 189.669 482.299 189.669 466.635C189.669 450.971 202.429 438.218 218.237 438.218H295.023ZM164.008 629.5C167.587 629.5 170.485 626.595 170.485 623.017C170.485 619.439 167.587 616.534 164.008 616.534H159.43C149.511 616.534 141.454 608.469 141.454 598.509C141.454 588.542 149.512 580.478 159.43 580.478H214.026C237.566 580.478 256.634 561.353 256.634 537.779C256.634 534.199 253.735 531.296 250.157 531.296C246.577 531.296 243.68 534.2 243.68 537.779C243.68 554.209 230.395 567.511 214.026 567.511H159.43C142.339 567.511 128.5 581.4 128.5 598.509C128.5 615.613 142.339 629.5 159.43 629.5H164.008ZM180.294 269.983C180.294 266.405 177.395 263.5 173.817 263.5C170.237 263.5 167.339 266.405 167.339 269.983V297.526C167.339 334.646 197.364 364.753 234.42 364.753H258.557C275.111 364.753 288.546 378.206 288.546 394.82C288.546 398.4 291.444 401.303 295.023 401.303C298.602 401.303 301.5 398.4 301.5 394.82C301.5 371.063 282.283 351.787 258.557 351.787H234.42C204.535 351.787 180.294 327.503 180.294 297.526V269.983Z" fill="#EF8D6E" stroke="#EF8D6E" stroke-width="3"/>
<path d="M1006.02 433.218C1009.6 433.218 1012.5 430.314 1012.5 426.734C1012.5 423.156 1009.6 420.251 1006.02 420.251H929.237C906.335 420.251 887.715 438.748 887.715 461.635C887.715 484.521 906.335 503.019 929.237 503.019H960.929C964.507 503.019 967.406 500.115 967.406 496.535C967.406 492.957 964.507 490.052 960.929 490.052H929.237C913.429 490.052 900.669 477.299 900.669 461.635C900.669 445.971 913.429 433.218 929.237 433.218H1006.02ZM875.008 624.5C878.587 624.5 881.485 621.595 881.485 618.017C881.485 614.439 878.587 611.534 875.008 611.534H870.43C860.511 611.534 852.454 603.469 852.454 593.509C852.454 583.542 860.512 575.478 870.43 575.478H925.026C948.566 575.478 967.634 556.353 967.634 532.779C967.634 529.199 964.735 526.296 961.157 526.296C957.577 526.296 954.68 529.2 954.68 532.779C954.68 549.209 941.395 562.511 925.026 562.511H870.43C853.339 562.511 839.5 576.4 839.5 593.509C839.5 610.613 853.339 624.5 870.43 624.5H875.008ZM891.294 264.983C891.294 261.405 888.395 258.5 884.817 258.5C881.237 258.5 878.339 261.405 878.339 264.983V292.526C878.339 329.646 908.364 359.753 945.42 359.753H969.557C986.111 359.753 999.546 373.206 999.546 389.82C999.546 393.4 1002.44 396.303 1006.02 396.303C1009.6 396.303 1012.5 393.4 1012.5 389.82C1012.5 366.063 993.283 346.787 969.557 346.787H945.42C915.535 346.787 891.294 322.503 891.294 292.526V264.983Z" fill="#EF8D6E" stroke="#EF8D6E" stroke-width="3"/>
<path d="M1716.02 428.218C1719.6 428.218 1722.5 425.314 1722.5 421.734C1722.5 418.156 1719.6 415.251 1716.02 415.251H1639.24C1616.34 415.251 1597.71 433.748 1597.71 456.635C1597.71 479.521 1616.34 498.019 1639.24 498.019H1670.93C1674.51 498.019 1677.41 495.115 1677.41 491.535C1677.41 487.957 1674.51 485.052 1670.93 485.052H1639.24C1623.43 485.052 1610.67 472.299 1610.67 456.635C1610.67 440.971 1623.43 428.218 1639.24 428.218H1716.02ZM1585.01 619.5C1588.59 619.5 1591.48 616.595 1591.48 613.017C1591.48 609.439 1588.59 606.534 1585.01 606.534H1580.43C1570.51 606.534 1562.45 598.469 1562.45 588.509C1562.45 578.542 1570.51 570.478 1580.43 570.478H1635.03C1658.57 570.478 1677.63 551.353 1677.63 527.779C1677.63 524.199 1674.74 521.296 1671.16 521.296C1667.58 521.296 1664.68 524.2 1664.68 527.779C1664.68 544.209 1651.39 557.511 1635.03 557.511H1580.43C1563.34 557.511 1549.5 571.4 1549.5 588.509C1549.5 605.613 1563.34 619.5 1580.43 619.5H1585.01ZM1601.29 259.983C1601.29 256.405 1598.4 253.5 1594.82 253.5C1591.24 253.5 1588.34 256.405 1588.34 259.983V287.526C1588.34 324.646 1618.36 354.753 1655.42 354.753H1679.56C1696.11 354.753 1709.55 368.206 1709.55 384.82C1709.55 388.4 1712.44 391.303 1716.02 391.303C1719.6 391.303 1722.5 388.4 1722.5 384.82C1722.5 361.063 1703.28 341.787 1679.56 341.787H1655.42C1625.53 341.787 1601.29 317.503 1601.29 287.526V259.983Z" fill="#EF8D6E" stroke="#EF8D6E" stroke-width="3"/>
<path fill-rule="evenodd" clip-rule="evenodd" d="M306 555C319.807 555 331 544.031 331 530.5C331 516.969 319.807 506 306 506C292.193 506 281 516.969 281 530.5C281 544.031 292.193 555 306 555Z" stroke="#EF8D6E" stroke-width="15" stroke-linecap="round" stroke-linejoin="round"/>
<path fill-rule="evenodd" clip-rule="evenodd" d="M1017 550C1030.81 550 1042 539.031 1042 525.5C1042 511.969 1030.81 501 1017 501C1003.19 501 992 511.969 992 525.5C992 539.031 1003.19 550 1017 550Z" stroke="#EF8D6E" stroke-width="15" stroke-linecap="round" stroke-linejoin="round"/>
<path fill-rule="evenodd" clip-rule="evenodd" d="M1727 545C1740.81 545 1752 534.031 1752 520.5C1752 506.969 1740.81 496 1727 496C1713.19 496 1702 506.969 1702 520.5C1702 534.031 1713.19 545 1727 545Z" stroke="#EF8D6E" stroke-width="15" stroke-linecap="round" stroke-linejoin="round"/>
<path d="M155 51C155 69.2253 169.551 84 187.5 84C205.45 84 220 69.2253 220 51C220 32.7746 205.45 18 187.5 18H155" stroke="#EF8D6E" stroke-width="15" stroke-linecap="round" stroke-linejoin="round"/>
<path d="M596 534C596 549.464 608.313 562 623.5 562C638.688 562 651 549.464 651 534C651 518.536 638.688 506 623.5 506H596" stroke="#EF8D6E" stroke-width="15" stroke-linecap="round" stroke-linejoin="round"/>
<path d="M866 46C866 64.2253 880.551 79 898.5 79C916.45 79 931 64.2253 931 46C931 27.7746 916.45 13 898.5 13H866" stroke="#EF8D6E" stroke-width="15" stroke-linecap="round" stroke-linejoin="round"/>
<path d="M1576 41C1576 59.2253 1590.55 74 1608.5 74C1626.45 74 1641 59.2253 1641 41C1641 22.7746 1626.45 8 1608.5 8H1576" stroke="#EF8D6E" stroke-width="15" stroke-linecap="round" stroke-linejoin="round"/>
<path d="M362 359.001V320.761C362 309.848 370.954 301 382 301C393.046 301 402 309.848 402 320.761V397.239C402 408.153 393.046 417 382 417C370.954 417 362 408.153 362 397.239V388.001" stroke="#EF8D6E" stroke-width="15" stroke-linecap="round" stroke-linejoin="round"/>
<path d="M1073 354.001V315.761C1073 304.848 1081.95 296 1093 296C1104.05 296 1113 304.848 1113 315.761V392.239C1113 403.153 1104.05 412 1093 412C1081.95 412 1073 403.153 1073 392.239V383.001" stroke="#EF8D6E" stroke-width="15" stroke-linecap="round" stroke-linejoin="round"/>
<path d="M1783 349.001V310.761C1783 299.848 1791.95 291 1803 291C1814.05 291 1823 299.848 1823 310.761V387.239C1823 398.153 1814.05 407 1803 407C1791.95 407 1783 398.153 1783 387.239V378.001" stroke="#EF8D6E" stroke-width="15" stroke-linecap="round" stroke-linejoin="round"/>
<path d="M642 184.766V193.555C642 205.951 631.998 216 619.667 216C607.332 216 597.329 205.951 597.329 193.555V186.275C597.329 173.972 587.404 164 575.167 164C562.925 164 553 173.972 553 186.275V195.234" stroke="#EF8D6E" stroke-width="15" stroke-linecap="round" stroke-linejoin="round"/>
<path d="M1353 179.766V188.555C1353 200.951 1343 211 1330.67 211C1318.33 211 1308.33 200.951 1308.33 188.555V181.275C1308.33 168.972 1298.4 159 1286.17 159C1273.92 159 1264 168.972 1264 181.275V190.234" stroke="#EF8D6E" stroke-width="15" stroke-linecap="round" stroke-linejoin="round"/>
<path d="M2063 174.766V183.555C2063 195.951 2053 206 2040.67 206C2028.33 206 2018.33 195.951 2018.33 183.555V176.275C2018.33 163.972 2008.4 154 1996.17 154C1983.92 154 1974 163.972 1974 176.275V185.234" stroke="#EF8D6E" stroke-width="15" stroke-linecap="round" stroke-linejoin="round"/>
<path d="M420.501 77.9103C405.312 77.9103 393 90.0185 393 104.955C393 119.891 405.312 132 420.501 132C435.688 132 448 119.891 448 104.955V18" stroke="#EF8D6E" stroke-width="15" stroke-linecap="round" stroke-linejoin="round"/>
<path d="M1131.5 72.9103C1116.31 72.9103 1104 85.0185 1104 99.955C1104 114.891 1116.31 127 1131.5 127C1146.69 127 1159 114.891 1159 99.955V13" stroke="#EF8D6E" stroke-width="15" stroke-linecap="round" stroke-linejoin="round"/>
<path d="M1841.5 67.9103C1826.31 67.9103 1814 80.0185 1814 94.955C1814 109.891 1826.31 122 1841.5 122C1856.69 122 1869 109.891 1869 94.955V8" stroke="#EF8D6E" stroke-width="15" stroke-linecap="round" stroke-linejoin="round"/>
<path d="M258 318H236.791C222.547 318 211 306.582 211 292.5C211 278.417 222.547 267 236.791 267H279.209C293.453 267 305 278.417 305 292.5V294.765C305 307.597 294.478 318 281.5 318" stroke="#F4B170" stroke-width="15" stroke-linecap="round" stroke-linejoin="round"/>
<path d="M969 313H947.791C933.547 313 922 301.582 922 287.5C922 273.417 933.547 262 947.791 262H990.209C1004.45 262 1016 273.417 1016 287.5V289.765C1016 302.597 1005.48 313 992.5 313" stroke="#F4B170" stroke-width="15" stroke-linecap="round" stroke-linejoin="round"/>
<path d="M1679 308H1657.79C1643.55 308 1632 296.582 1632 282.5C1632 268.417 1643.55 257 1657.79 257H1700.21C1714.45 257 1726 268.417 1726 282.5V284.765C1726 297.597 1715.48 308 1702.5 308" stroke="#F4B170" stroke-width="15" stroke-linecap="round" stroke-linejoin="round"/>
<path d="M327 267H368.966C397.152 267 420 243.719 420 215" stroke="#F4B170" stroke-width="15" stroke-linecap="round" stroke-linejoin="round"/>
<path d="M1038 262H1079.97C1108.15 262 1131 238.719 1131 210" stroke="#F4B170" stroke-width="15" stroke-linecap="round" stroke-linejoin="round"/>
<path d="M1748 257H1789.97C1818.15 257 1841 233.719 1841 205" stroke="#F4B170" stroke-width="15" stroke-linecap="round" stroke-linejoin="round"/>
<path d="M573 401V423.987C573 447.19 554.142 466 530.877 466H498" stroke="#59A593" stroke-width="15" stroke-linecap="round" stroke-linejoin="round"/>
<path d="M1284 396V418.987C1284 442.19 1265.14 461 1241.88 461H1209" stroke="#59A593" stroke-width="15" stroke-linecap="round" stroke-linejoin="round"/>
<path d="M1994 391V413.987C1994 437.19 1975.14 456 1951.88 456H1919" stroke="#59A593" stroke-width="15" stroke-linecap="round" stroke-linejoin="round"/>
<path fill-rule="evenodd" clip-rule="evenodd" d="M1218.17 593C1200.96 593 1187 579.121 1187 562C1187 544.881 1200.96 531 1218.17 531H1240.83C1258.04 531 1272 544.881 1272 562C1272 579.121 1258.04 593 1240.83 593H1218.17Z" stroke="#533B60" stroke-width="15" stroke-linecap="round" stroke-linejoin="round"/>
<path fill-rule="evenodd" clip-rule="evenodd" d="M1928.17 588C1910.96 588 1897 574.121 1897 557C1897 539.881 1910.96 526 1928.17 526H1950.83C1968.04 526 1982 539.881 1982 557C1982 574.121 1968.04 588 1950.83 588H1928.17Z" stroke="#533B60" stroke-width="15" stroke-linecap="round" stroke-linejoin="round"/>
<path fill-rule="evenodd" clip-rule="evenodd" d="M675 517.166C675 499.955 688.879 486 706 486C723.119 486 737 499.955 737 517.166V539.834C737 557.045 723.119 571 706 571C688.879 571 675 557.045 675 539.834V517.166Z" stroke="#533B60" stroke-width="15" stroke-linecap="round" stroke-linejoin="round"/>
<path fill-rule="evenodd" clip-rule="evenodd" d="M1385 512.166C1385 494.955 1398.88 481 1416 481C1433.12 481 1447 494.955 1447 512.166V534.834C1447 552.045 1433.12 566 1416 566C1398.88 566 1385 552.045 1385 534.834V512.166Z" stroke="#533B60" stroke-width="15" stroke-linecap="round" stroke-linejoin="round"/>
<path fill-rule="evenodd" clip-rule="evenodd" d="M718 243.967C718 234.045 726.059 226 736 226C745.94 226 754 234.045 754 243.967V257.033C754 266.955 745.94 275 736 275C726.059 275 718 266.955 718 257.033V243.967Z" stroke="#533B60" stroke-width="15" stroke-linecap="round" stroke-linejoin="round"/>
<path fill-rule="evenodd" clip-rule="evenodd" d="M1428 238.967C1428 229.045 1436.06 221 1446 221C1455.94 221 1464 229.045 1464 238.967V252.033C1464 261.955 1455.94 270 1446 270C1436.06 270 1428 261.955 1428 252.033V238.967Z" stroke="#533B60" stroke-width="15" stroke-linecap="round" stroke-linejoin="round"/>
<circle cx="767.5" cy="535.5" r="10.5" fill="#EF8D6E"/>
<circle cx="492.5" cy="533.5" r="10.5" fill="#EF8D6E"/>
<circle cx="799.5" cy="535.5" r="10.5" fill="#EF8D6E"/>
<circle cx="524.5" cy="533.5" r="10.5" fill="#EF8D6E"/>
<circle cx="1317.5" cy="391.5" r="10.5" fill="#EF8D6E"/>
<circle cx="1496.5" cy="22.5" r="10.5" fill="#EF8D6E"/>
<circle cx="781.5" cy="14.5" r="10.5" fill="#EF8D6E"/>
<circle cx="1448.5" cy="22.5" r="10.5" fill="#EF8D6E"/>
<circle cx="733.5" cy="14.5" r="10.5" fill="#EF8D6E"/>
<circle cx="834.5" cy="535.5" r="10.5" fill="#EF8D6E"/>
<circle cx="1785.5" cy="47.5" r="10.5" fill="#EF8D6E"/>
<circle cx="1785.5" cy="89.5" r="10.5" fill="#EF8D6E"/>
<circle cx="1785.5" cy="132.5" r="10.5" fill="#EF8D6E"/>
<circle cx="559.5" cy="533.5" r="10.5" fill="#EF8D6E"/>
<circle cx="1317.5" cy="451.5" r="10.5" fill="#EF8D6E"/>
<circle cx="1544.5" cy="22.5" r="10.5" fill="#EF8D6E"/>
<circle cx="829.5" cy="14.5" r="10.5" fill="#EF8D6E"/>
<circle cx="1075.56" cy="96.5115" r="10.5" transform="rotate(89.9371 1075.56 96.5115)" fill="#EF8D6E"/>
<circle cx="1075.51" cy="48.5115" r="10.5" transform="rotate(89.9371 1075.51 48.5115)" fill="#EF8D6E"/>
<circle cx="1075.62" cy="144.511" r="10.5" transform="rotate(89.9371 1075.62 144.511)" fill="#EF8D6E"/>
<circle cx="1317.5" cy="422.5" r="10.5" fill="#EF8D6E"/>
</svg>
